<?xml version="1.0" encoding="utf-8"?>
<!-- Generator: Adobe Illustrator 16.0.3, SVG Export Plug-In . SVG Version: 6.00 Build 0)  -->
<!DOCTYPE svg PUBLIC "-//W3C//DTD SVG 1.1//EN" "http://www.w3.org/Graphics/SVG/1.1/DTD/svg11.dtd">
<svg version="1.1" id="Layer_1" xmlns="http://www.w3.org/2000/svg" xmlns:xlink="http://www.w3.org/1999/xlink" x="0px" y="0px"
	 width="100px" height="100px" viewBox="0 0 100 100" enable-background="new 0 0 100 100" xml:space="preserve">
<g>
	<path fill="#FFFFFF" d="M82.244,81c0.006,0,0.011,0,0.017,0C82.27,81,82.267,81,82.244,81z"/>
	<path fill="#FFFFFF" d="M87.691,72.115c-0.11-0.328-0.281-0.622-0.473-0.903c-0.112-0.748-0.387-1.501-0.62-2.022
		c-0.375-0.838-1.029-1.471-1.791-1.984c-0.146-0.34-0.322-0.664-0.588-0.95c-3.228-3.472-10.68-3.426-15.004-2.854
		c-0.296,0.039-0.525,0.176-0.692,0.359c-0.116,0.025-0.231,0.054-0.341,0.092c0.074-0.14,0.165-0.267,0.234-0.41
		c2.943-6.092-3.046-12.218-8.835-12.525c0.902-1.04,1.65-2.125,2.158-3.162c3.425-6.999-4.388-8.949-7.598-13.355
		c-0.132-0.181-0.319-0.285-0.519-0.328c-0.293-0.34-0.852-0.429-1.272-0.076c-1.417,1.189-2.559,2.636-3.927,3.895
		c-2.342,2.156-4.803,3.179-7.755,4.25c-3.214,1.167-6.624,1.904-9.574,3.683c-3.587,2.161-4.892,10.114,0.852,9.894
		c0.815-0.031,1.185-1.148,0.426-1.574c-4.036-2.263,0.134-6.052,2.64-7.066c2.582-1.045,5.284-1.77,7.875-2.82
		c3.747-1.52,8.606-4.03,10.397-7.968c1.605,2.497,4.816,4.344,5.754,6.967c-0.11,0.21-0.236,0.406-0.403,0.548
		c-0.287,0.245-0.302,0.819,0,1.061c0.132,0.105,0.248,0.194,0.362,0.277c-0.053,0.162-0.12,0.317-0.186,0.474
		c-0.589,0.44-1.033,1.054-1.45,1.499c-0.123,0.099-0.248,0.196-0.37,0.297c-0.876,0.267-1.73,0.792-1.879,1.572
		c-0.11,0.093-0.22,0.185-0.331,0.278c0.554,0.173,0.292,1.063-0.317,0.942l-0.785-0.157c-0.071,0.047-0.142,0.094-0.213,0.141
		c-0.054,0.027-0.108,0.05-0.161,0.079c-0.105,0.057-0.187,0.13-0.256,0.209c-0.367,0.253-0.723,0.517-1.021,0.826
		c-0.954,0.987-2.364,1.053-3.417,1.896c-0.026,0.021-0.038,0.046-0.06,0.068c-0.181,0.039-0.36,0.076-0.542,0.117
		c-1.196,0.099-2.396,0.237-3.551,0.325c-1.298,0.1-2.512,0.636-3.792,0.803c-0.835,0.107-1.292,1.176-0.454,1.675
		c1.199,0.714,2.621,0.45,3.933,0.286c0.596-0.074,1.208-0.097,1.824-0.109l-0.008,0.008c0.438,0.479,1.131,0.5,1.746,0.536
		c0.185,0.011,0.367,0.008,0.55,0.001c0.052,0.004,0.104,0.005,0.157,0.01c0.079,0.008,0.137-0.014,0.2-0.028
		c0.08-0.004,0.159-0.009,0.239-0.013c0.358-0.019,0.698,0.027,1.037-0.105c0.071-0.027,0.113-0.077,0.163-0.119
		c0.055,0.026,0.119,0.043,0.194,0.045c0.452,0.011,0.746-0.062,1.124-0.315c0.038-0.025,0.064-0.064,0.084-0.105
		c0.306,0.237,0.576,0.295,0.939,0.096c0.185-0.101,0.273-0.251,0.296-0.409c0.046,0.008,0.088,0.018,0.141,0.016
		c1.213-0.055,2.489,0.1,3.659-0.275c0.298-0.096,0.496-0.317,0.604-0.576c0.938-0.014,1.926-0.162,2.743-0.48
		c0.188-0.015,0.374-0.035,0.563-0.023c0.059,0.017,0.114,0.016,0.171,0.018c0.246,0.123,0.531,0.197,0.779,0.263
		c0.513,0.134,1.009,0.373,1.547,0.196c0.107-0.035,0.196-0.091,0.275-0.156c0.195,0.058,0.395,0.105,0.592,0.146
		c0.012,0.223,0.11,0.437,0.354,0.56c0.106,0.054,0.21,0.114,0.316,0.169c0.1,0.131,0.188,0.268,0.278,0.404
		c0.019,0.045,0.054,0.087,0.089,0.129c0.08,0.127,0.134,0.266,0.206,0.396c-0.017,0.046-0.041,0.083-0.051,0.135
		c-0.173,0.903,0.035,1.591,0.397,2.418c0.148,0.34,0.286,0.697,0.471,1.021c-0.01,0.17,0,0.34-0.023,0.511
		c-0.027,0.021-0.059,0.029-0.084,0.056c-0.089,0.083-0.166,0.176-0.232,0.279c-0.032,0.076-0.064,0.152-0.097,0.229
		c-0.004,0.004-0.002,0.002-0.006,0.006c-0.22,0.229-0.383,0.479-0.521,0.762c-0.126,0.261-0.261,0.598-0.344,0.943
		c-0.274,0.177-0.519,0.42-0.724,0.646c-0.659,0.725-1.645,1.063-2.129,1.963c-0.025,0.048-0.038,0.097-0.056,0.146
		c-0.836,0.075-1.665,0.322-2.366,0.772c-0.531,0.342-1.084,0.96-1.093,1.546c-4.102,1.553-8.872,2.188-12.868,2.477
		c-6.006,0.435-12.13-0.483-17.979-1.767c-2.635-0.578-4.93-1.222-6.918-3.123c-3.545-3.39-0.295-6.117,2.908-7.397
		c1.311-0.524,1.078-2.255-0.327-2.411c-3.354-0.373-5.171,1.746-7.047,4.333c-2.063,2.844,0.349,5.652,2.176,7.767
		c0.373,0.431,0.785,0.812,1.224,1.155c-2.701,0.529-4.679,3.685-6.175,5.809c-2.423,3.441,1.765,7.831,4.354,9.474
		c4.359,2.765,10.386,3.132,15.391,3.456c7.992,0.518,15.91-1.623,23.892-1.789c7.126-0.148,14.243,0.974,21.354,0.307
		c5.444-0.511,9.226-2.086,10.021-7.915C88.462,76.351,88.399,74.224,87.691,72.115z M80.535,76.159
		c-0.717,0.403-0.935,1.089-0.819,1.727c-0.446,0.269-0.894,0.537-1.326,0.834c-0.633,0.434-0.867,1.17-0.802,1.86
		c-4.35,1.324-9.691,0.825-14.003,1.445c-0.474,0.068-0.81,0.293-1.028,0.598c-1.331-0.161-2.634-0.015-4.015,0.094
		c-0.361,0.028-0.724,0.043-1.087,0.056c-0.109,0.509-0.562,0.979-1.221,0.858c-0.943-0.172-1.903-0.024-2.848,0.178
		c-0.489,0.243-1.04,0.392-1.72,0.358c-0.158-0.008-0.294-0.057-0.418-0.124c-7.521,0.593-14.949,1.825-22.549,1.02
		c-4.097-0.433-8.341-0.762-11.656-3.479c-4.362-3.577-0.092-9.439,3.889-11.166c0.058-0.025,0.105-0.061,0.148-0.101
		c2.582,1.302,5.708,1.753,8.403,2.28c5.196,1.018,10.517,1.4,15.803,1.2c3.83-0.146,8.576-0.794,12.859-2.333
		c0.097,0.021,0.198,0.028,0.304,0.009c1.487-0.273,2.664-1.32,4.158-1.534c0.142-0.02,0.285-0.133,0.384-0.266
		c0.182-0.031,0.362-0.074,0.564-0.12c0.282-0.064,0.461-0.281,0.544-0.535c0.099-0.041,0.196-0.081,0.307-0.134
		c0.208,0.049,0.416,0.101,0.629,0.144c0.393,0.079,0.657-0.075,0.815-0.306c0.3,0.067,0.617,0.087,0.985,0.025
		c0.42-0.07,0.628-0.409,0.66-0.777c0.113,0.056,0.242,0.092,0.396,0.092c0.258,0,0.449-0.098,0.592-0.238
		c0.144-0.004,0.285-0.023,0.419-0.086c0.044-0.021,0.069-0.054,0.099-0.084c0.185,0.124,0.369,0.248,0.554,0.373
		c0.32,0.339,0.795,0.444,1.232,0.349c0.36,0.216,0.821,0.271,1.303,0.027c0.242-0.073,0.484-0.146,0.727-0.219
		c0.315,0.361,0.805,0.574,1.392,0.431c0.34-0.109,0.685-0.186,1.031-0.246c0.168,0.398,0.491,0.701,0.929,0.799
		c0.283,0.553,0.874,0.923,1.644,0.685c0.156-0.048,0.308-0.104,0.462-0.154c0.143,0.248,0.352,0.447,0.609,0.566
		c0.12,0.399,0.398,0.759,0.764,0.982c-0.395,0.844,0.01,2.007,0.888,2.136c-0.344,0.963,0.283,1.973,1.348,2.025
		C81.435,75.657,80.986,75.904,80.535,76.159z"/>
</g>
<path fill="#FFFFFF" d="M30.847,60.772c-1.022-0.467-2.352,0.569-3.227,1.087c-0.464,0.274-0.903,0.611-1.279,0.999
	c-0.507,0.523-0.466,1.025-0.459,1.671c0.003,0.264,0.3,0.445,0.532,0.305c0.33-0.199,0.688-0.312,1.027-0.551
	c0.45-0.317,0.849-0.641,1.34-0.899c0.841-0.444,2.419-0.886,2.386-2.051C31.162,61.121,31.052,60.867,30.847,60.772z"/>
<path fill="#FFFFFF" d="M52.235,59.917c-0.088-0.482-0.524-0.819-0.934-1.037c-0.471-0.25-0.896-0.209-1.404-0.125
	c-0.21,0.035-0.256,0.325-0.122,0.46c0.256,0.255,0.427,0.556,0.726,0.765c0.338,0.236,0.594,0.546,0.998,0.673
	C51.968,60.8,52.312,60.341,52.235,59.917z"/>
<path fill="#FFFFFF" d="M48.522,65.321c-0.619-0.278-1.277-0.116-1.937-0.079c-0.773,0.044-1.582-0.001-2.318-0.249
	c-0.269-0.091-0.52,0.308-0.287,0.492c0.646,0.512,1.366,0.871,2.182,1.011c0.779,0.133,1.872,0.247,2.461-0.389
	C48.824,65.892,48.829,65.458,48.522,65.321z"/>
<path fill="#FFFFFF" d="M53.507,65.701c-0.245-0.021-0.482-0.026-0.723-0.085c-0.448-0.106-0.632,0.602-0.188,0.683
	c0.304,0.055,0.604,0.074,0.911,0.051C53.925,66.317,53.923,65.735,53.507,65.701z"/>
<path fill="#FFFFFF" d="M65.511,59.117c0.405-0.322,0.805-0.653,1.142-1.048c0.795-0.932,0.274-2.468-0.867-2.585
	c-0.297-0.469-0.822-0.814-1.368-0.813c-0.372,0-0.732,0.026-1.088,0.069c-0.161-0.173-0.371-0.314-0.629-0.406
	c-0.793-0.283-1.595-0.294-2.387-0.164c-0.123-0.04-0.255-0.061-0.396-0.044c-0.18,0.021-0.354,0.052-0.53,0.08
	c-0.097-0.014-0.078-0.034-0.193-0.021C59.091,54.198,59,54.218,59,54.232v-0.006c0,0.005-0.133,0.007-0.145,0.012
	c-0.602,0.086-1.246,0.197-1.828,0.334c-0.295-0.201-0.703-0.304-1.076-0.254c-0.889,0.119-1.788,0.318-2.68,0.448
	c-0.284-0.27-0.708-0.421-1.17-0.351c-0.373,0.029-0.743,0.087-1.106,0.167c-0.385-0.156-0.847-0.134-1.206,0.204
	c-0.157,0.148-0.316,0.297-0.473,0.445c-0.9,0.849,0.034,2.299,1.17,2.011c0.299-0.087,0.601-0.159,0.904-0.23
	c0.193,0.184,0.45,0.299,0.776,0.271c0.601-0.05,1.197-0.166,1.795-0.279c-0.006,0.426,0.167,0.834,0.623,1.049
	c0.392,0.185,1.273,0.201,1.999,0.25c-0.32,0.317-0.666,0.628-0.864,0.947c-0.744,1.201,0.472,2.389,1.675,2.179
	c0.687-0.119,1.393-0.425,2.098-0.683c0.145,0.326,0.388,0.627,0.79,0.875c0.255,0.157,0.555,0.218,0.862,0.236
	c-0.076,0.121-0.127,0.245-0.164,0.371c-0.1,0.062-0.198,0.12-0.297,0.184c-1.412,0.899-2.186,2.261-3.45,3.301
	c0.064-0.144-0.047-0.352-0.248-0.306c-0.476,0.109-0.949,0.291-1.439,0.32c-0.495,0.03-0.999,0.064-1.495,0.081
	c-0.286,0.01-0.269,0.397,0,0.432c1.02,0.133,2.058-0.12,3.039-0.412c-0.056,0.043-0.105,0.089-0.163,0.131
	c-1.338,0.972-0.198,3.041,1.312,2.246c0.149-0.078,0.292-0.163,0.439-0.244c0.138,0.014,0.279,0.001,0.42-0.031
	c0.003,0.012,0.007,0.024,0.01,0.036c2.416-0.916,4.858-2.456,6.855-4.086c0.54-0.441,0.457-1.169,0.071-1.647
	c0.035-0.06,0.072-0.117,0.108-0.177c0.037-0.062,0.06-0.127,0.08-0.192c0.099-0.089,0.2-0.166,0.297-0.261
	C67.409,60.726,66.687,59.066,65.511,59.117z M60.5,65c-0.645,0-0.645-1,0-1S61.145,65,60.5,65z M59.666,57.041
	C59.111,57.007,58.556,57,58,57c-0.645,0-0.645-1,0-1c1.175,0,2.893-0.169,3.854,0.646c0.492,0.418-0.219,1.122-0.707,0.707
	C60.801,57.061,60.089,57.066,59.666,57.041z M62,61c0-0.27,0.035-0.583-0.051-0.844C61.89,59.975,61.664,60.004,61.5,60
	c-0.644-0.016-0.646-1.016,0-1c0.47,0.011,1.014,0.11,1.27,0.558C63.019,59.993,63,60.514,63,61C63,61.645,62,61.645,62,61z"/>
<path fill="#FFFFFF" d="M38.178,65.993c-0.928-0.157-1.86-0.176-2.785-0.355c-0.375-0.073-0.802-0.225-1.09-0.484
	c-0.458-0.415-0.168-1.163,0.008-1.643c0.104-0.281-0.358-0.476-0.485-0.204c-0.464,1.001-0.706,2.38,0.296,3.154
	c1.043,0.806,2.607,0.977,3.878,0.844C38.69,67.233,38.978,66.13,38.178,65.993z"/>
<path fill="#FFFFFF" d="M46.909,45.053c-2.026,0.117-3.901,1.453-5.642,2.381c-0.25,0.135-0.112,0.475,0.134,0.494
	c2.025,0.168,4.376-0.482,5.96-1.785C47.79,45.789,47.441,45.021,46.909,45.053z"/>
<path fill="#FFFFFF" d="M60.146,43.384C59.979,42.914,60,42.575,59,42.373v-0.008c1-2.802-1.764-5.878-4.625-6.318
	c-1.109-0.171-1.616,0.925-0.938,1.802c0.378,0.488,0.882,0.907,1.335,1.326c-0.222,0.177-0.327,0.392-0.384,0.62
	c-0.032-0.003-0.047-0.014-0.08-0.015c-0.387-0.013-0.541,0.402-0.399,0.709c0.101,0.22,0.078,0.522,0.143,0.756
	c0.109,0.395,0.416,0.667,0.795,0.789c0.384,0.124,0.677-0.192,0.728-0.538c0.149,0.143,0.283,0.299,0.358,0.511
	c0.23,0.651,0.29,1.365,0.472,2.032c0.006,0.023,0.02,0.044,0.027,0.067c0.021,0.183,0.032,0.36,0.037,0.529
	c-0.236,0.104-0.475,0.214-0.709,0.332c0.023-0.002,0.049-0.01,0.072-0.011c0.283-0.01,0.515,0.272,0.494,0.545H57
	c0.645,0,0.645,1,0,1h-1.023c-0.229,0.343-0.542,0.675-0.985,1.01c-0.084,0.064-0.154,0.13-0.223,0.197
	c-1.979,0.892-3.785,1.848-5.119,3.6c-0.886,1.165,0.772,2.479,1.876,1.876c1.807-0.987,3.558-2.208,5.188-3.471
	c0.168-0.13,0.265-0.289,0.333-0.456c0.312,0.247,0.786,0.316,1.117-0.01c1.062-1.048,2.124-2.167,2.809-3.508
	C61.572,44.562,61,43.735,60.146,43.384z M54.466,50.202l-1.099-0.22c-0.632-0.126-0.364-1.09,0.266-0.964l1.099,0.22
	C55.363,49.364,55.096,50.328,54.466,50.202z"/>
<path fill="#FFFFFF" d="M46.345,49.653c-1.975,0.517-4.015,0.721-5.993,1.196c-0.353,0.084-0.342,0.609,0,0.7
	c1.16,0.308,1.941,0.29,3.117,0.019c1.08-0.249,2.136-0.834,3.133-1.305C46.953,50.098,46.701,49.561,46.345,49.653z"/>
<path fill="#FFFFFF" d="M39.47,50.598c-0.478-0.201-0.812-0.705-1.324-0.812c-0.643-0.135-0.907,0.633-0.423,1.006
	c0.387,0.297,1.048,0.523,1.528,0.603C39.784,51.48,39.957,50.803,39.47,50.598z"/>
<path fill="#FFFFFF" d="M20.864,73.489c-0.389,0.589-0.755,1.127-0.451,1.844c0.117,0.273,0.483,0.299,0.712,0.187
	c0.581-0.286,0.812-0.92,1.031-1.485C22.46,73.25,21.283,72.855,20.864,73.489z"/>
<path fill="#FFFFFF" d="M23.643,80.089c-0.39-0.08-0.705-0.145-1.039-0.377c-0.201-0.141-0.451,0.184-0.262,0.339
	c0.351,0.287,0.77,0.542,1.241,0.481C23.814,80.503,23.915,80.146,23.643,80.089z"/>
<path fill="#FFFFFF" d="M26.585,80.228c-0.426-0.15-0.838-0.042-1.275-0.006c-0.438,0.036-0.881,0.021-1.319,0.006
	c-0.092-0.003-0.103,0.128-0.021,0.155c0.776,0.254,1.899,0.783,2.686,0.383C26.9,80.641,26.809,80.306,26.585,80.228z"/>
<path fill="#FFFFFF" d="M44.24,79.49c-1.411-0.988-3.056-1.312-4.577-2.073c-0.188-0.095-0.422,0.161-0.238,0.308
	c1.406,1.119,2.93,1.69,4.633,2.197C44.328,80.002,44.449,79.638,44.24,79.49z"/>
<path fill="#FFFFFF" d="M82.32,74.555c-0.067-0.134-0.154-0.257-0.265-0.366c0.41-0.635,0.064-1.507-0.596-1.937
	c0.024-0.14,0.027-0.28,0.007-0.423c0.27-0.348,0.383-0.803,0.273-1.193c0.03-0.009,0.061-0.013,0.09-0.021
	c1.14-0.323,1.232-2.123,0-2.395c-0.455-0.1-0.908-0.174-1.359-0.236c-0.11-0.353-0.376-0.649-0.873-0.746
	c-0.991-0.193-1.979-0.298-2.963-0.359c0.099-0.552-0.213-1.137-0.968-1.157c-2.975-0.083-5.699,0.709-8.542,1.399
	c-0.402,0.033-0.805,0.065-1.208,0.1c-0.785,0.066-1.158,0.703-1.135,1.304c-1.281,0.226-2.541,0.533-3.793,0.954
	c-0.755,0.254-1.079,0.957-1.01,1.601c-0.048,0.011-0.096,0.022-0.144,0.033c-0.801,0.144-1.593,0.314-2.4,0.546
	c-0.704,0.202-1.042,0.71-1.124,1.264c0.354-0.042,0.704-0.108,1.054-0.176c0.283-0.076,0.568-0.146,0.854-0.216
	c0.246-0.073,0.491-0.151,0.738-0.216c1.403-0.366,2.802-0.599,4.16-1.129c0.602-0.234,0.859,0.732,0.266,0.965
	c-1.18,0.46-2.416,0.765-3.652,1.065c-0.201,0.055-0.404,0.103-0.605,0.154c0.004,0.014,0.008,0.026,0.011,0.041
	c0.139,0.08,0.215,0.228,0.245,0.378c0.022-0.007,0.046-0.013,0.069-0.021c0.38-0.123,0.623,0.198,0.61,0.509
	c0.058-0.026,0.112-0.055,0.174-0.073c0.807-0.252,1.389,0.602,1.213,1.267c0.148-0.213,0.316-0.334,0.521-0.502
	c0.187-0.151,0.422-0.029,0.475,0.143c0.111-0.042,0.222-0.081,0.333-0.104c0.318-0.062,0.618-0.085,0.942-0.093
	c0.583-0.014,1.147-0.081,1.724,0.028c0.337,0.063,0.405,0.594,0.097,0.742c-0.577,0.278-1.186,0.312-1.82,0.35
	c-0.106,0.006-0.211,0.005-0.315,0.006c-0.01,0.09-0.058,0.175-0.169,0.201c-0.208,0.05-0.416,0.039-0.622,0.009
	c0.141,0.411,0.044,0.883-0.439,1.113c-0.08,0.038-0.16,0.062-0.241,0.097c0.001,0.001,0.001,0.003,0.002,0.004
	c-0.038,0.011-0.07,0.032-0.107,0.045c0.003,0.053,0.016,0.101,0.008,0.158c-0.053,0.396-0.136,0.67-0.407,0.968
	c-0.08,0.088-0.24,0.193-0.356,0.252c-0.036,0.022-0.048,0.026-0.061,0.031c-0.287,0.295-0.584,0.578-0.891,0.851
	c0.023,0.007,0.048,0.015,0.071,0.021c0.593,0.16,1.106,0.302,1.615,0.641c0.179,0.119,0.187,0.455-0.065,0.5
	c-0.646,0.115-1.183-0.021-1.804-0.221c-0.107-0.034-0.226-0.067-0.348-0.102c-0.134,0.123-0.291,0.218-0.474,0.241
	c-0.381,0.702-1.046,1.168-1.848,1.137c0.304,0.34,0.261,0.881-0.035,1.259c0.216,0.495,0.683,0.861,1.436,0.826
	c3.081-0.142,5.991-0.876,8.984-1.591c0.121-0.029,0.282-0.079,0.46-0.139c1.238-0.112,2.447-0.257,3.588-0.482
	c0.371,0.23,0.853,0.373,1.247,0.367c3.372-0.051,6.451-2.192,9.345-3.682c0.467-0.241,0.665-0.727,0.658-1.217
	c0.12-0.055,0.241-0.113,0.361-0.167C84.852,76.471,83.784,74.396,82.32,74.555z M64.833,81.425c-0.562,0.04-1.185-0.06-1.714-0.252
	c-0.216-0.078-0.133-0.398,0.096-0.346c0.542,0.125,1.071,0.042,1.618,0.082C65.165,80.934,65.165,81.401,64.833,81.425z
	 M65.853,78.905c-0.073,0.052-0.158,0.092-0.27,0.095c-0.412,0.012-0.744,0.11-1.081,0.349c-0.527,0.373-1.026-0.494-0.504-0.863
	c0.167-0.118,0.344-0.204,0.525-0.275c-0.001-0.006-0.003-0.012-0.003-0.018c-0.002-0.049,0.005-0.096,0.016-0.144
	c0.002-0.011,0.002-0.021,0.005-0.032c0.013-0.045,0.034-0.085,0.058-0.125c0.009-0.016,0.017-0.032,0.027-0.047
	c0.015-0.02,0.032,0.11,0.051,0.094C64.709,77.905,64.745,78,64.788,78c0,0,0.001,0,0.002,0c0.059,0,0.124-0.188,0.198-0.186
	c0.004,0,0.007-0.075,0.012-0.075c0.015,0,0.024-0.029,0.038-0.028c0.031,0.004,0.061-0.019,0.095-0.008
	c0.06,0.019,0.12,0.23,0.18,0.248C65.393,77.861,65.51,78,65.667,78h0.166c0.335,0,0.492,0.062,0.479,0.322
	C66.535,78.627,66.308,78.961,65.853,78.905z M66.901,72.415c0.008-0.014,0.019-0.024,0.026-0.038
	c-0.109-0.155-0.113-0.369-0.026-0.546c0.163-0.333,0.461-0.491,0.764-0.68c0.534-0.334,1.017,0.476,0.536,0.833
	c0.059,0.163,0.038,0.354-0.081,0.503c0.087,0.04,0.172,0.085,0.263,0.113c0.613,0.193,0.352,1.158-0.266,0.965
	c-0.326-0.103-0.603-0.291-0.917-0.416C66.899,73.028,66.732,72.721,66.901,72.415z M70,76.75c-0.923-0.105-1.714-0.386-2.437-0.979
	c-0.499-0.409,0.213-1.112,0.707-0.707c0.498,0.409,1.094,0.613,1.729,0.687C70.633,75.822,70.64,76.823,70,76.75z M70.5,69.25
	c-0.321-0.034-0.322-0.466,0-0.5c1.077-0.115,2.542-0.402,3.486,0.321c0.237,0.181,0.169,0.548-0.153,0.567
	c-0.529,0.031-1.073-0.124-1.604-0.166C71.646,69.427,71.081,69.312,70.5,69.25z M72.983,72.587c-0.077,0.302-0.44,0.291-0.6,0.079
	c-0.587-0.782,0.045-1.699,0.949-1.66c0.272,0.012,0.451,0.355,0.232,0.561c-0.162,0.149-0.276,0.286-0.388,0.474
	C73.062,72.236,73.039,72.367,72.983,72.587z M75.583,78.976c-0.573,0.39-1.413,0.14-2.062,0.267c-0.098,0.02-0.14-0.125-0.041-0.15
	c0.641-0.169,1.394-0.516,2.064-0.416C75.697,78.698,75.687,78.905,75.583,78.976z M75.833,76.37
	c-0.556-0.049-1.154-0.196-1.646-0.484c-0.562-0.329-0.677-0.961-0.65-1.552c0.012-0.272,0.42-0.435,0.553-0.149
	c0.184,0.39,0.562,0.666,0.748,1.051c0.194,0.399,0.634,0.611,1.05,0.735C76.1,76.034,76.068,76.391,75.833,76.37z"/>
<path fill="#FFFFFF" d="M53.191,76.941c-0.493-0.282-0.986-0.502-1.397-0.907c-0.531-0.521-1.22,0.238-0.792,0.792
	c0.441,0.569,1.009,1.073,1.736,1.191C53.365,78.121,53.809,77.295,53.191,76.941z"/>
<path fill="#FFFFFF" d="M32.581,77.575c-0.032-0.586-0.036-1.172-0.013-1.758c0.032-0.844-1.321-1.044-1.485-0.201
	c-0.213,1.097-0.608,2.609-0.221,3.69c0.287,0.804,1.341,0.803,1.628,0C32.688,78.754,32.613,78.152,32.581,77.575z"/>
<path fill="#FFFFFF" d="M20.79,22.647c-0.305-1.023-2.049-0.875-1.929,0.261c0.295,2.789,1.39,5.307,1.343,8.158
	c-0.061,3.729,0.167,7.229-1.464,10.691c-1.492,3.168-4.02,7.895-0.671,10.672c0.307,0.254,0.733,0.016,0.657-0.383
	c-1.086-5.646,2.964-9.023,3.364-14.351C22.483,32.429,22.299,27.711,20.79,22.647z"/>
<path fill="#FFFFFF" d="M32.335,6.575c-0.671-1.042-1.791,0.007-1.559,1.427c0.98,6.006-2.77,10.436-2.14,16.834
	c0.507,5.157,2.758,12.061,0.532,16.75c-0.233,0.491,0.157,1.303,0.521,1.066c3.124-2.026,1.908-9.632,1.44-13.639
	c-0.253-2.167-0.489-4.216-0.488-6.436c0.002-3.445,1.766-6.124,2.724-8.954C34.303,10.86,33.597,8.533,32.335,6.575z"/>
<path fill="#FFFFFF" d="M41.638,19.764c-0.232-0.177-0.584,0.116-0.491,0.377c1.003,2.793,0.235,4.632,0.062,7.435
	c-0.174,2.816,0.826,6.229-1.313,8.45c-0.681,0.707-0.004,2.228,1.041,1.789c3.088-1.297,2.523-4.435,1.889-7.173
	C41.965,26.925,45.226,22.509,41.638,19.764z"/>
<path fill="#FFFFFF" d="M71.168,31.326c-0.258-0.866-1.693-0.735-1.62,0.219c0.321,4.228,1.716,8.51,1.015,12.742
	c-0.273,1.654-1.556,3.123-1.457,4.872c0.093,1.628,0.503,3.028,1.129,4.54c0.342,0.824,1.563,0.537,1.363-0.375
	c-0.567-2.598-0.97-4.645,0.209-7.195c0.603-1.304,0.784-2.504,0.925-3.906C73.075,38.813,72.128,34.568,71.168,31.326z"/>
<path fill="#FFFFFF" d="M64.627,26.581c-0.543-3.068-1.376-5.227-1.561-8.743c-0.145-2.745,0.148-5.749,0.151-8.519
	c0.002-1.955-1.13-1.886-1.198,0c-0.155,4.293-0.561,8.085-0.122,12.36c0.471,4.603,1.524,7.919,1.559,12.89
	c0.012,1.847,1.132,2.872,1.481,1C65.531,32.391,65.177,29.692,64.627,26.581z"/>
<path fill="#FFFFFF" d="M48.509,22.563c-0.109-0.508-0.913-0.507-1.022,0c-0.133,0.615-0.246,1.21-0.312,1.836
	c-0.068,0.666-0.237,1.303-0.176,1.977c0.061,0.672,0.982,1.051,1.354,0.367C49.036,25.485,48.797,23.903,48.509,22.563z"/>
<path fill="#FFFFFF" d="M82.419,41.13c-0.887-2.498-0.434-4.771-0.979-7.277c-0.614-2.819-2.31-5.128-3.195-7.845
	c-0.249-0.762-1.352-0.451-1.193,0.329c0.662,3.26,2.253,6.336,2.235,9.705c-0.011,2.353-0.006,4.484,1.978,5.974
	C81.813,42.429,82.638,41.747,82.419,41.13z"/>
<path fill="#FFFFFF" d="M80.677,58.174c-0.611-1.588-2.032-2.778-1.92-4.594c0.066-1.084-1.761-1.348-1.91-0.259
	c-0.294,2.155,0.677,4.332,2.354,5.712C79.806,59.531,81.028,59.086,80.677,58.174z"/>
<path fill="#FFFFFF" d="M9.297,55.69c-0.721-2.599-0.6-4.995-0.75-7.639c-0.024-0.421-0.61-0.513-0.737-0.1
	c-0.672,2.198-1.153,3.954-0.858,6.264c0.311,2.432,0.817,4.951,1.43,7.322c0.277,1.07,1.859,0.814,1.888-0.256
	C10.32,59.387,9.801,57.509,9.297,55.69z"/>
<path fill="#FFFFFF" d="M91.592,54.988c-0.981-4.486-2.056-8.846-0.595-13.368c0.198-0.612-0.654-0.896-0.985-0.415
	c-4.167,6.062,1.62,12.896-0.359,19.363c-0.256,0.839,0.83,1.414,1.43,0.832C92.767,59.766,92.038,57.025,91.592,54.988z"/>
</svg>
